<svg width="169" height="70" viewBox="0 0 169 70" fill="none" xmlns="http://www.w3.org/2000/svg">
<path d="M18.9252 41.2429L15.8886 36.5387C15.3469 35.7053 14.905 35.1543 14.5628 34.8859C14.2206 34.6175 13.6932 34.4833 12.9804 34.4833H11.2482V41.2429H9.58023V34.4833H7.84809C7.13527 34.4833 6.60779 34.6175 6.26564 34.8859C5.93774 35.1543 5.4958 35.7053 4.9398 36.5387L1.90321 41.2429H0L3.44289 35.9666C3.94186 35.2038 4.34104 34.6599 4.64042 34.335C4.95406 33.996 5.30334 33.7629 5.68826 33.6357C5.38888 33.4945 5.09662 33.2684 4.8115 32.9577C4.52637 32.6327 4.14858 32.1242 3.67812 31.432L0.38492 26.41H2.28813L5.17503 30.8599C5.73103 31.7075 6.17297 32.2655 6.50087 32.5339C6.84302 32.7881 7.3705 32.9153 8.08332 32.9153H9.58023V26.41H11.2482V32.9153H12.7451C13.4722 32.9153 13.9997 32.7811 14.3276 32.5127C14.6697 32.2443 15.1117 31.6933 15.6534 30.8599L18.5403 26.41H20.4435L17.1717 31.432C16.3163 32.6751 15.6463 33.4097 15.1616 33.6357C15.5322 33.7629 15.8673 33.9889 16.1666 34.3138C16.4803 34.6387 16.8937 35.1896 17.4069 35.9666L20.8284 41.2429H18.9252Z" fill="#002040"/>
<path d="M34.095 41.2429L31.0584 36.5387C30.5024 35.7053 30.0533 35.1543 29.7112 34.8859C29.3833 34.6175 28.8629 34.4833 28.1501 34.4833H25.7123V41.2429H24.0443V26.41H25.7123V32.9153H27.9149C28.6277 32.9153 29.148 32.7881 29.4759 32.5339C29.8181 32.2655 30.2672 31.7075 30.8232 30.8599L33.7101 26.41H35.6133L32.3201 31.432C31.8496 32.1242 31.4718 32.6327 31.1867 32.9577C30.9016 33.2684 30.6093 33.4945 30.3099 33.6357C30.6948 33.7629 31.037 33.996 31.3364 34.335C31.65 34.6599 32.0563 35.2038 32.5553 35.9666L35.9982 41.2429H34.095Z" fill="#002040"/>
<path d="M55.0332 41.2429H53.4721V36.6447H46.9071V41.2429H45.346V30.648H46.9071V35.1614H53.4721V30.648H55.0332V41.2429Z" fill="#002040"/>
<path d="M69.0116 41.2429H67.8996L67.8354 38.8484C67.422 39.6112 66.8304 40.2258 66.0605 40.6919C65.2907 41.144 64.4353 41.37 63.4944 41.37C61.9832 41.37 60.7144 40.8473 59.688 39.802C58.6615 38.7425 58.1483 37.457 58.1483 35.9454C58.1483 34.4339 58.6615 33.1484 59.688 32.0889C60.7144 31.0294 61.9832 30.4996 63.4944 30.4996C64.4211 30.4996 65.2693 30.7327 66.0391 31.1989C66.8232 31.6509 67.422 32.2584 67.8354 33.0212L67.8996 30.648H69.0116V41.2429ZM60.8213 38.7637C61.5912 39.5124 62.5178 39.8867 63.6013 39.8867C64.6848 39.8867 65.6115 39.5124 66.3813 38.7637C67.1511 38.015 67.5361 37.0755 67.5361 35.9454C67.5361 34.8153 67.1511 33.8759 66.3813 33.1272C65.6115 32.3643 64.6848 31.9829 63.6013 31.9829C62.5321 31.9829 61.6126 32.3643 60.8427 33.1272C60.0729 33.8759 59.688 34.8153 59.688 35.9454C59.688 37.0755 60.0658 38.015 60.8213 38.7637Z" fill="#002040"/>
<path d="M91.1107 41.2429H88.1597V35.1614H82.3645V41.2429H79.4134V26.41H82.3645V32.4067H88.1597V26.41H91.1107V41.2429Z" fill="#002040"/>
<path d="M99.2076 30.4996C101.474 30.4996 103.043 31.4532 103.912 33.3603C104.126 33.8264 104.247 34.3915 104.276 35.0554C104.304 35.7053 104.24 36.2491 104.083 36.6871H96.6201C96.6201 37.3793 96.8695 37.9231 97.3685 38.3187C97.8817 38.7142 98.5161 38.912 99.2717 38.912C100.455 38.912 101.531 38.6648 102.501 38.1703L103.934 39.7172C102.437 40.8191 100.883 41.37 99.2717 41.37C97.6608 41.37 96.3492 40.8614 95.337 39.8443C94.3248 38.8131 93.8187 37.5135 93.8187 35.9454C93.8187 34.3915 94.3105 33.0989 95.2942 32.0677C96.2779 31.0223 97.5824 30.4996 99.2076 30.4996ZM99.2076 32.9577C98.509 32.9577 97.9245 33.1625 97.454 33.5722C96.9978 33.9818 96.7555 34.4551 96.727 34.9919H101.624C101.624 34.6811 101.538 34.3986 101.367 34.1443C100.94 33.3532 100.22 32.9577 99.2076 32.9577Z" fill="#002040"/>
<path d="M107.298 30.648H112.901C115.353 30.648 116.579 31.6086 116.579 33.5298C116.579 34.6458 116.095 35.3733 115.125 35.7123C116.422 36.009 117.071 36.8001 117.071 38.0856C117.071 39.2016 116.743 40.0068 116.087 40.5012C115.432 40.9957 114.377 41.2429 112.923 41.2429H107.298V30.648ZM110.014 32.9365V34.8224H112.751C113.493 34.8082 113.863 34.4904 113.863 33.8688C113.863 33.2472 113.479 32.9365 112.709 32.9365H110.014ZM110.014 38.9544H112.987C113.899 38.9544 114.355 38.5871 114.355 37.8525C114.355 37.1462 113.913 36.7859 113.029 36.7718H110.014V38.9544Z" fill="#002040"/>
<path d="M124.719 30.5208C126.43 30.5208 127.834 31.1706 128.932 32.4703L127.306 34.2079C126.522 33.4874 125.66 33.1272 124.719 33.1272C123.963 33.1272 123.315 33.3885 122.773 33.9112C122.231 34.4339 121.96 35.1119 121.96 35.9454C121.96 36.7789 122.231 37.457 122.773 37.9796C123.315 38.5023 123.963 38.7637 124.719 38.7637C125.66 38.7637 126.522 38.4034 127.306 37.683L128.932 39.4205C127.834 40.7202 126.43 41.37 124.719 41.37C123.193 41.37 121.896 40.8403 120.827 39.7808C119.772 38.7213 119.244 37.4428 119.244 35.9454C119.244 34.448 119.772 33.1696 120.827 32.1101C121.896 31.0506 123.193 30.5208 124.719 30.5208Z" fill="#002040"/>
<path d="M139.059 41.2429L137.22 38.4246C136.878 37.9019 136.571 37.5488 136.301 37.3651C136.044 37.1815 135.673 37.0897 135.189 37.0897H134.44V41.2429H131.724V30.648H134.44V34.5045H135.103C135.588 34.5045 135.958 34.4127 136.215 34.229C136.472 34.0454 136.771 33.6922 137.113 33.1696L138.781 30.648H141.796L139.401 34.229C138.86 35.0625 138.353 35.5781 137.883 35.7759C138.368 35.9313 138.909 36.461 139.508 37.3651L142.074 41.2429H139.059Z" fill="#002040"/>
<path d="M148.892 30.4996C150.417 30.4996 151.714 31.0364 152.784 32.1101C153.853 33.1696 154.387 34.448 154.387 35.9454C154.387 37.4428 153.853 38.7213 152.784 39.7808C151.714 40.8403 150.417 41.37 148.892 41.37C147.366 41.37 146.069 40.8403 145 39.7808C143.945 38.7213 143.417 37.4428 143.417 35.9454C143.417 34.4339 143.952 33.1484 145.021 32.0889C146.09 31.0294 147.38 30.4996 148.892 30.4996ZM150.816 33.9112C150.274 33.3744 149.633 33.106 148.892 33.106C148.15 33.106 147.502 33.3744 146.946 33.9112C146.404 34.4339 146.133 35.1119 146.133 35.9454C146.133 36.7789 146.404 37.457 146.946 37.9796C147.487 38.5023 148.136 38.7637 148.892 38.7637C149.633 38.7637 150.274 38.5023 150.816 37.9796C151.372 37.457 151.65 36.7789 151.65 35.9454C151.65 35.1119 151.372 34.4339 150.816 33.9112Z" fill="#002040"/>
<path d="M168.588 41.2429H165.872V34.9919L162.878 38.4034L159.884 34.9919V41.2429H157.168V30.648H158.922L162.878 35.1826L166.834 30.648H168.588V41.2429Z" fill="#002040"/>
</svg>
