<svg width="194" height="80" viewBox="0 0 194 80" fill="none" xmlns="http://www.w3.org/2000/svg">
<g clip-path="url(#clip0_588_10)">
<path d="M22.3896 47.1349L18.9192 41.7588C18.3001 40.8063 17.795 40.1766 17.4039 39.8699C17.0129 39.5631 16.4101 39.4097 15.5954 39.4097H13.6158V47.1349H11.7096V39.4097H9.72999C8.91534 39.4097 8.3125 39.5631 7.92147 39.8699C7.54674 40.1766 7.04166 40.8063 6.40623 41.7588L2.93584 47.1349H0.760742L4.69548 41.1049C5.26573 40.2331 5.72193 39.6116 6.06408 39.2402C6.42253 38.8528 6.8217 38.5864 7.26161 38.4411C6.91946 38.2796 6.58545 38.0213 6.2596 37.6661C5.93374 37.2948 5.50198 36.7136 4.96431 35.9225L1.20065 30.1831H3.37575L6.67507 35.2687C7.31049 36.2373 7.81557 36.875 8.19031 37.1818C8.58134 37.4724 9.18417 37.6177 9.99882 37.6177H11.7096V30.1831H13.6158V37.6177H15.3266C16.1575 37.6177 16.7604 37.4643 17.1351 37.1576C17.5261 36.8508 18.0312 36.2212 18.6503 35.2687L21.9497 30.1831H24.1248L20.3855 35.9225C19.408 37.3432 18.6422 38.1828 18.0882 38.4411C18.5119 38.5864 18.8947 38.8447 19.2369 39.216C19.5953 39.5873 20.0678 40.217 20.6544 41.1049L24.5647 47.1349H22.3896Z" fill="white"/>
<path d="M39.7264 47.1349L36.256 41.7588C35.6206 40.8063 35.1074 40.1766 34.7164 39.8699C34.3416 39.5631 33.7469 39.4097 32.9323 39.4097H30.1462V47.1349H28.2399V30.1831H30.1462V37.6177H32.6635C33.4781 37.6177 34.0728 37.4724 34.4475 37.1818C34.8386 36.875 35.3518 36.2373 35.9872 35.2687L39.2865 30.1831H41.4616L37.698 35.9225C37.1603 36.7136 36.7285 37.2948 36.4027 37.6661C36.0768 38.0213 35.7428 38.2796 35.4007 38.4411C35.8406 38.5864 36.2316 38.8528 36.5737 39.2402C36.9322 39.6116 37.3965 40.2331 37.9668 41.1049L41.9015 47.1349H39.7264Z" fill="white"/>
<path d="M63.6558 47.1349H61.8717V41.8799H54.3688V47.1349H52.5848V35.0265H54.3688V40.1847H61.8717V35.0265H63.6558V47.1349Z" fill="white"/>
<path d="M79.6311 47.1349H78.3603L78.2869 44.3984C77.8145 45.2702 77.1383 45.9725 76.2585 46.5053C75.3787 47.0219 74.4011 47.2802 73.3258 47.2802C71.5987 47.2802 70.1486 46.6829 68.9756 45.4882C67.8025 44.2773 67.2159 42.8082 67.2159 41.0807C67.2159 39.3532 67.8025 37.8841 68.9756 36.6732C70.1486 35.4624 71.5987 34.857 73.3258 34.857C74.3848 34.857 75.3542 35.1234 76.234 35.6561C77.1302 36.1728 77.8145 36.867 78.2869 37.7388L78.3603 35.0265H79.6311V47.1349ZM70.2708 44.3016C71.1507 45.1572 72.2097 45.5851 73.448 45.5851C74.6862 45.5851 75.7453 45.1572 76.6251 44.3016C77.5049 43.4459 77.9448 42.3723 77.9448 41.0807C77.9448 39.7891 77.5049 38.7155 76.6251 37.8599C75.7453 36.9881 74.6862 36.5522 73.448 36.5522C72.226 36.5522 71.1751 36.9881 70.2953 37.8599C69.4155 38.7155 68.9756 39.7891 68.9756 41.0807C68.9756 42.3723 69.4073 43.4459 70.2708 44.3016Z" fill="white"/>
<path d="M104.887 47.1349H101.515V40.1847H94.8916V47.1349H91.519V30.1831H94.8916V37.0365H101.515V30.1831H104.887V47.1349Z" fill="white"/>
<path d="M114.141 34.857C116.731 34.857 118.524 35.9467 119.517 38.1263C119.762 38.659 119.9 39.3048 119.933 40.0636C119.966 40.8063 119.892 41.4278 119.713 41.9283H111.184C111.184 42.7194 111.469 43.341 112.039 43.793C112.626 44.2451 113.351 44.4711 114.214 44.4711C115.566 44.4711 116.797 44.1886 117.904 43.6235L119.542 45.3913C117.831 46.6506 116.055 47.2802 114.214 47.2802C112.373 47.2802 110.874 46.699 109.717 45.5366C108.561 44.3581 107.982 42.8728 107.982 41.0807C107.982 39.3048 108.544 37.8276 109.668 36.649C110.793 35.4543 112.283 34.857 114.141 34.857ZM114.141 37.6661C113.342 37.6661 112.674 37.9002 112.137 38.3684C111.615 38.8366 111.338 39.3775 111.306 39.991H116.902C116.902 39.6358 116.805 39.3129 116.609 39.0223C116.12 38.1182 115.298 37.6661 114.141 37.6661Z" fill="white"/>
<path d="M123.387 35.0265H129.791C132.593 35.0265 133.994 36.1243 133.994 38.32C133.994 39.5954 133.44 40.4269 132.332 40.8143C133.815 41.1534 134.556 42.0575 134.556 43.5266C134.556 44.802 134.182 45.7223 133.432 46.2874C132.683 46.8524 131.477 47.1349 129.815 47.1349H123.387V35.0265ZM126.491 37.6419V39.7972H129.62C130.467 39.7811 130.89 39.4178 130.89 38.7075C130.89 37.9971 130.45 37.6419 129.571 37.6419H126.491ZM126.491 44.5195H129.888C130.931 44.5195 131.452 44.0998 131.452 43.2602C131.452 42.453 130.947 42.0413 129.937 42.0252H126.491V44.5195Z" fill="white"/>
<path d="M143.297 34.8812C145.252 34.8812 146.857 35.6238 148.111 37.1091L146.254 39.0949C145.358 38.2716 144.372 37.8599 143.297 37.8599C142.433 37.8599 141.692 38.1585 141.073 38.7559C140.453 39.3532 140.144 40.1282 140.144 41.0807C140.144 42.0332 140.453 42.8082 141.073 43.4055C141.692 44.0029 142.433 44.3016 143.297 44.3016C144.372 44.3016 145.358 43.8899 146.254 43.0665L148.111 45.0523C146.857 46.5376 145.252 47.2802 143.297 47.2802C141.553 47.2802 140.071 46.6748 138.849 45.464C137.643 44.2531 137.04 42.792 137.04 41.0807C137.04 39.3694 137.643 37.9083 138.849 36.6975C140.071 35.4866 141.553 34.8812 143.297 34.8812Z" fill="white"/>
<path d="M159.685 47.1349L157.584 43.9141C157.193 43.3167 156.842 42.9131 156.533 42.7032C156.24 42.4934 155.816 42.3884 155.262 42.3884H154.407V47.1349H151.303V35.0265H154.407V39.434H155.164C155.718 39.434 156.142 39.329 156.435 39.1191C156.728 38.9093 157.07 38.5057 157.461 37.9083L159.368 35.0265H162.814L160.076 39.1191C159.457 40.0717 158.879 40.661 158.341 40.887C158.895 41.0646 159.514 41.67 160.199 42.7032L163.131 47.1349H159.685Z" fill="white"/>
<path d="M170.923 34.857C172.666 34.857 174.149 35.4705 175.371 36.6975C176.593 37.9083 177.204 39.3694 177.204 41.0807C177.204 42.792 176.593 44.2531 175.371 45.464C174.149 46.6748 172.666 47.2802 170.923 47.2802C169.179 47.2802 167.697 46.6748 166.475 45.464C165.269 44.2531 164.666 42.792 164.666 41.0807C164.666 39.3532 165.277 37.8841 166.499 36.6732C167.721 35.4624 169.196 34.857 170.923 34.857ZM173.122 38.7559C172.503 38.1424 171.77 37.8357 170.923 37.8357C170.075 37.8357 169.334 38.1424 168.699 38.7559C168.079 39.3532 167.77 40.1282 167.77 41.0807C167.77 42.0332 168.079 42.8082 168.699 43.4055C169.318 44.0029 170.059 44.3016 170.923 44.3016C171.77 44.3016 172.503 44.0029 173.122 43.4055C173.758 42.8082 174.075 42.0332 174.075 41.0807C174.075 40.1282 173.758 39.3532 173.122 38.7559Z" fill="white"/>
<path d="M193.432 47.1349H190.329V39.991L186.907 43.8899L183.486 39.991V47.1349H180.382V35.0265H182.386L186.907 40.2089L191.428 35.0265H193.432V47.1349Z" fill="white"/>
</g>
<defs>
<clipPath id="clip0_588_10">
<rect width="193.143" height="80" fill="white" transform="translate(0.760742)"/>
</clipPath>
</defs>
</svg>
