<svg width="24" height="20" viewBox="0 0 24 20" fill="none" xmlns="http://www.w3.org/2000/svg">
<path d="M13.8353 4.00009H10.1678L8.334 6.20059H6.1335C5.74443 6.20059 5.37129 6.35514 5.09618 6.63026C4.82106 6.90538 4.6665 7.27851 4.6665 7.66759V14.2691C4.6665 14.6582 4.82106 15.0313 5.09618 15.3064C5.37129 15.5815 5.74443 15.7361 6.1335 15.7361H17.8695C18.2586 15.7361 18.6317 15.5815 18.9068 15.3064C19.1819 15.0313 19.3365 14.6582 19.3365 14.2691V7.66759C19.3365 7.27851 19.1819 6.90538 18.9068 6.63026C18.6317 6.35514 18.2586 6.20059 17.8695 6.20059H15.669L13.8353 4.00009Z" stroke="white" stroke-width="2" stroke-linecap="round" stroke-linejoin="round"/>
<path d="M12.0015 12.8021C13.2168 12.8021 14.202 11.8169 14.202 10.6016C14.202 9.38628 13.2168 8.40109 12.0015 8.40109C10.7862 8.40109 9.801 9.38628 9.801 10.6016C9.801 11.8169 10.7862 12.8021 12.0015 12.8021Z" stroke="white" stroke-width="2" stroke-linecap="round" stroke-linejoin="round"/>
</svg>
