<svg width="19" height="20" viewBox="0 0 19 20" fill="none" xmlns="http://www.w3.org/2000/svg">
<path d="M7.12484 14.75V13.75C6.57255 13.75 6.12484 14.1977 6.12484 14.75H7.12484ZM11.8748 14.75H12.8748C12.8748 14.1977 12.4271 13.75 11.8748 13.75V14.75ZM6.33317 4.24998C5.78089 4.24998 5.33317 4.69769 5.33317 5.24998C5.33317 5.80226 5.78089 6.24998 6.33317 6.24998V4.24998ZM6.34109 6.24998C6.89337 6.24998 7.34109 5.80226 7.34109 5.24998C7.34109 4.69769 6.89337 4.24998 6.34109 4.24998V6.24998ZM12.6665 4.24998C12.1142 4.24998 11.6665 4.69769 11.6665 5.24998C11.6665 5.80226 12.1142 6.24998 12.6665 6.24998V4.24998ZM12.6744 6.24998C13.2267 6.24998 13.6744 5.80226 13.6744 5.24998C13.6744 4.69769 13.2267 4.24998 12.6744 4.24998V6.24998ZM9.49984 4.24998C8.94755 4.24998 8.49984 4.69769 8.49984 5.24998C8.49984 5.80226 8.94755 6.24998 9.49984 6.24998V4.24998ZM9.50775 6.24998C10.06 6.24998 10.5078 5.80226 10.5078 5.24998C10.5078 4.69769 10.06 4.24998 9.50775 4.24998V6.24998ZM9.49984 7.41665C8.94755 7.41665 8.49984 7.86436 8.49984 8.41665C8.49984 8.96893 8.94755 9.41665 9.49984 9.41665V7.41665ZM9.50775 9.41665C10.06 9.41665 10.5078 8.96893 10.5078 8.41665C10.5078 7.86436 10.06 7.41665 9.50775 7.41665V9.41665ZM9.49984 10.5833C8.94755 10.5833 8.49984 11.031 8.49984 11.5833C8.49984 12.1356 8.94755 12.5833 9.49984 12.5833V10.5833ZM9.50775 12.5833C10.06 12.5833 10.5078 12.1356 10.5078 11.5833C10.5078 11.031 10.06 10.5833 9.50775 10.5833V12.5833ZM12.6665 7.41665C12.1142 7.41665 11.6665 7.86436 11.6665 8.41665C11.6665 8.96893 12.1142 9.41665 12.6665 9.41665V7.41665ZM12.6744 9.41665C13.2267 9.41665 13.6744 8.96893 13.6744 8.41665C13.6744 7.86436 13.2267 7.41665 12.6744 7.41665V9.41665ZM12.6665 10.5833C12.1142 10.5833 11.6665 11.031 11.6665 11.5833C11.6665 12.1356 12.1142 12.5833 12.6665 12.5833V10.5833ZM12.6744 12.5833C13.2267 12.5833 13.6744 12.1356 13.6744 11.5833C13.6744 11.031 13.2267 10.5833 12.6744 10.5833V12.5833ZM6.33317 7.41665C5.78089 7.41665 5.33317 7.86436 5.33317 8.41665C5.33317 8.96893 5.78089 9.41665 6.33317 9.41665V7.41665ZM6.34109 9.41665C6.89337 9.41665 7.34109 8.96893 7.34109 8.41665C7.34109 7.86436 6.89337 7.41665 6.34109 7.41665V9.41665ZM6.33317 10.5833C5.78089 10.5833 5.33317 11.031 5.33317 11.5833C5.33317 12.1356 5.78089 12.5833 6.33317 12.5833V10.5833ZM6.34109 12.5833C6.89337 12.5833 7.34109 12.1356 7.34109 11.5833C7.34109 11.031 6.89337 10.5833 6.34109 10.5833V12.5833ZM4.74984 3.08331H14.2498V1.08331H4.74984V3.08331ZM14.2498 3.08331C14.572 3.08331 14.8332 3.34448 14.8332 3.66665H16.8332C16.8332 2.23991 15.6766 1.08331 14.2498 1.08331V3.08331ZM14.8332 3.66665V16.3333H16.8332V3.66665H14.8332ZM14.8332 16.3333C14.8332 16.6555 14.572 16.9166 14.2498 16.9166V18.9166C15.6766 18.9166 16.8332 17.7601 16.8332 16.3333H14.8332ZM14.2498 16.9166H4.74984V18.9166H14.2498V16.9166ZM4.74984 16.9166C4.42767 16.9166 4.1665 16.6555 4.1665 16.3333H2.1665C2.1665 17.7601 3.3231 18.9166 4.74984 18.9166V16.9166ZM4.1665 16.3333V3.66665H2.1665V16.3333H4.1665ZM4.1665 3.66665C4.1665 3.34448 4.42767 3.08331 4.74984 3.08331V1.08331C3.3231 1.08331 2.1665 2.23991 2.1665 3.66665H4.1665ZM8.12484 17.9166V14.75H6.12484V17.9166H8.12484ZM7.12484 15.75H11.8748V13.75H7.12484V15.75ZM10.8748 14.75V17.9166H12.8748V14.75H10.8748ZM6.33317 6.24998H6.34109V4.24998H6.33317V6.24998ZM12.6665 6.24998H12.6744V4.24998H12.6665V6.24998ZM9.49984 6.24998H9.50775V4.24998H9.49984V6.24998ZM9.49984 9.41665H9.50775V7.41665H9.49984V9.41665ZM9.49984 12.5833H9.50775V10.5833H9.49984V12.5833ZM12.6665 9.41665H12.6744V7.41665H12.6665V9.41665ZM12.6665 12.5833H12.6744V10.5833H12.6665V12.5833ZM6.33317 9.41665H6.34109V7.41665H6.33317V9.41665ZM6.33317 12.5833H6.34109V10.5833H6.33317V12.5833Z" fill="white"/>
</svg>
